<svg width="46.004089" height="95.660889" viewBox="0 0 46.0041 95.6609" fill="none" xmlns="http://www.w3.org/2000/svg" xmlns:xlink="http://www.w3.org/1999/xlink">
	<desc>
			Created with Pixso.
	</desc>
	<defs>
		<linearGradient id="paint_linear_4_4348_0" x1="45.000061" y1="6.660899" x2="45.000061" y2="94.660896" gradientUnits="userSpaceOnUse">
			<stop stop-color="#8000FF"/>
			<stop offset="1.000000" stop-color="#8000FF" stop-opacity="0.000000"/>
		</linearGradient>
	</defs>
	<path id="Ellipse 3" d="M45 95.6609Q26.3604 95.6609 13.1802 82.4807Q0 69.3004 0 50.6609Q0 32.0212 13.1802 18.8411Q26.3604 5.66089 45 5.66089L45 7.66089Q27.1888 7.66089 14.5944 20.2552Q2 32.8497 2 50.6609Q2 68.472 14.5944 81.0665Q27.1888 93.6609 45 93.6609L45 95.6609ZM43.5858 6.66089L38.636 1.71118C38.2401 1.31519 38.2401 0.692871 38.636 0.296875C39.032 -0.098999 39.6543 -0.098999 40.0502 0.296875L45.7071 5.95374C46.1031 6.34973 46.1031 6.97205 45.7071 7.36804L40.0502 13.0249C39.6543 13.4208 39.032 13.4208 38.636 13.0249C38.2401 12.6289 38.2401 12.0066 38.636 11.6106L43.5858 6.66089Z" fill="url(#paint_linear_4_4348_0)" fill-opacity="1.000000" fill-rule="evenodd"/>
</svg>
