<svg width="22.000000" height="20.000000" viewBox="0 0 22 20" fill="none" xmlns="http://www.w3.org/2000/svg" xmlns:xlink="http://www.w3.org/1999/xlink">
	<desc>
			Created with Pixso.
	</desc>
	<defs/>
	<path id="Vector" d="M20 10L18 10L18 4.23779L10.072 11.3379L2 4.21582L2 16L12 16L12 18L1 18C0.734741 18 0.480469 17.8945 0.292847 17.707C0.105347 17.5195 0 17.2651 0 17L0 1C0 0.734863 0.105347 0.480469 0.292847 0.292969C0.480469 0.105469 0.734741 0 1 0L19 0C19.2653 0 19.5195 0.105469 19.7072 0.292969C19.8947 0.480469 20 0.734863 20 1L20 10ZM2.51099 2L10.061 8.66211L17.502 2L2.51099 2ZM19 15L22 15L22 17L19 17L19 20L17 20L17 17L14 17L14 15L17 15L17 12L19 12L19 15Z" fill="#8000FF" fill-opacity="1.000000" fill-rule="nonzero"/>
</svg>
