<svg width="32.655762" height="24.000000" viewBox="0 0 32.6558 24" fill="none" xmlns="http://www.w3.org/2000/svg" xmlns:xlink="http://www.w3.org/1999/xlink">
	<desc>
			Created with Pixso.
	</desc>
	<defs>
		<clipPath id="clip11_952">
			<rect id="figma " width="16.090914" height="24.000000" transform="translate(8.125000 0.000000)" fill="white" fill-opacity="0"/>
		</clipPath>
		<clipPath id="clip11_961">
			<rect id="sketch" width="26.400005" height="24.000000" transform="translate(2.875000 0.000000)" fill="white" fill-opacity="0"/>
		</clipPath>
		<clipPath id="clip11_963">
			<rect id="logo 1" width="17.907690" height="24.000000" transform="translate(7.000000 0.000000)" fill="white" fill-opacity="0"/>
		</clipPath>
		<clipPath id="clip11_965">
			<rect id="avacode" width="17.907690" height="24.000000" transform="translate(7.000000 0.000000)" fill="white" fill-opacity="0"/>
		</clipPath>
		<clipPath id="clip11_968">
			<rect id="photoshop " width="24.000000" height="24.000000" transform="translate(4.000000 0.000000)" fill="white" fill-opacity="0"/>
		</clipPath>
		<clipPath id="clip11_978">
			<rect id="zeplin " width="30.144009" height="24.000000" transform="translate(1.000000 0.000000)" fill="white" fill-opacity="0"/>
		</clipPath>
		<clipPath id="clip11_982">
			<rect id="invision " width="24.000000" height="24.000000" transform="translate(4.000000 0.000000)" fill="white" fill-opacity="0"/>
		</clipPath>
		<clipPath id="clip11_996">
			<rect id="html " width="16.956522" height="24.000000" transform="translate(7.875000 0.000000)" fill="white" fill-opacity="0"/>
		</clipPath>
		<clipPath id="clip11_1002">
			<rect id="css-3 " width="17.174314" height="24.000000" transform="translate(7.875000 0.000000)" fill="white" fill-opacity="0"/>
		</clipPath>
		<clipPath id="clip11_1005">
			<rect id="javascript " width="24.000000" height="24.000000" transform="translate(4.500000 0.000000)" fill="white" fill-opacity="0"/>
		</clipPath>
		<clipPath id="clip11_1007">
			<rect id="sass " width="32.655739" height="24.000000" fill="white" fill-opacity="0"/>
		</clipPath>
		<clipPath id="clip11_1010">
			<rect id="git-icon " width="24.000000" height="24.000000" transform="translate(4.500000 0.000000)" fill="white" fill-opacity="0"/>
		</clipPath>
		<clipPath id="clip11_1017">
			<rect id="gulp " width="10.871794" height="24.000000" transform="translate(10.875000 0.000000)" fill="white" fill-opacity="0"/>
		</clipPath>
		<clipPath id="clip11_1019">
			<rect id="wordpress logo" width="24.000000" height="24.000000" transform="translate(4.500000 0.000000)" fill="white" fill-opacity="0"/>
		</clipPath>
		<clipPath id="clip11_1022">
			<rect id="bitrix-1 logo" width="23.887417" height="24.000000" transform="translate(4.488037 0.000000)" fill="white" fill-opacity="0"/>
		</clipPath>
		<clipPath id="clip11_1024">
			<rect id="codeigniter-plain logo" width="24.000000" height="24.000000" transform="translate(4.500000 0.000000)" fill="white" fill-opacity="0"/>
		</clipPath>
	</defs>
	<rect id="figma " width="16.090914" height="24.000000" transform="translate(8.125000 0.000000)" fill="#FFFFFF" fill-opacity="0"/>
	<g clip-path="url(#clip11_952)">
		<path id="Vector" d="M12.1477 24C14.3683 24 16.1705 22.208 16.1705 20L16.1705 16L12.1477 16C9.92719 16 8.125 17.792 8.125 20C8.125 22.208 9.92719 24 12.1477 24Z" fill="#0ACF83" fill-opacity="1.000000" fill-rule="nonzero"/>
		<path id="Vector" d="M8.125 12C8.125 9.79199 9.92719 8 12.1477 8L16.1705 8L16.1705 16L12.1477 16C9.92719 16 8.125 14.208 8.125 12Z" fill="#A259FF" fill-opacity="1.000000" fill-rule="nonzero"/>
		<path id="Vector" d="M8.125 4C8.125 1.79199 9.92719 0 12.1477 0L16.1705 0L16.1705 8L12.1477 8C9.92719 8 8.125 6.20801 8.125 4Z" fill="#F24E1E" fill-opacity="1.000000" fill-rule="nonzero"/>
		<path id="Vector" d="M16.1705 0L20.1932 0C22.4138 0 24.2159 1.79199 24.2159 4C24.2159 6.20801 22.4138 8 20.1932 8L16.1705 8L16.1705 0Z" fill="#FF7262" fill-opacity="1.000000" fill-rule="nonzero"/>
		<path id="Vector" d="M24.2159 12C24.2159 14.208 22.4138 16 20.1932 16C17.9727 16 16.1705 14.208 16.1705 12C16.1705 9.79199 17.9727 8 20.1932 8C22.4138 8 24.2159 9.79199 24.2159 12Z" fill="#1ABCFE" fill-opacity="1.000000" fill-rule="nonzero"/>
	</g>
</svg>
