<svg width="32.655762" height="24.000000" viewBox="0 0 32.6558 24" fill="none" xmlns="http://www.w3.org/2000/svg" xmlns:xlink="http://www.w3.org/1999/xlink">
	<desc>
			Created with Pixso.
	</desc>
	<defs>
		<clipPath id="clip21_5101">
			<rect id="figma " width="16.090914" height="24.000000" transform="translate(8.125000 0.000000)" fill="white" fill-opacity="0"/>
		</clipPath>
		<clipPath id="clip21_5110">
			<rect id="sketch" width="26.400005" height="24.000000" transform="translate(2.875000 0.000000)" fill="white" fill-opacity="0"/>
		</clipPath>
		<clipPath id="clip21_5112">
			<rect id="logo 1" width="17.907690" height="24.000000" transform="translate(7.000000 0.000000)" fill="white" fill-opacity="0"/>
		</clipPath>
		<clipPath id="clip21_5114">
			<rect id="avacode" width="17.907690" height="24.000000" transform="translate(7.000000 0.000000)" fill="white" fill-opacity="0"/>
		</clipPath>
		<clipPath id="clip21_5117">
			<rect id="photoshop " width="24.000000" height="24.000000" transform="translate(4.000000 0.000000)" fill="white" fill-opacity="0"/>
		</clipPath>
		<clipPath id="clip21_5127">
			<rect id="zeplin " width="30.144009" height="24.000000" transform="translate(1.000000 0.000000)" fill="white" fill-opacity="0"/>
		</clipPath>
		<clipPath id="clip21_5131">
			<rect id="invision " width="24.000000" height="24.000000" transform="translate(4.000000 0.000000)" fill="white" fill-opacity="0"/>
		</clipPath>
		<clipPath id="clip21_5145">
			<rect id="html " width="16.956522" height="24.000000" transform="translate(7.875000 0.000000)" fill="white" fill-opacity="0"/>
		</clipPath>
		<clipPath id="clip21_5151">
			<rect id="css-3 " width="17.174314" height="24.000000" transform="translate(7.875000 0.000000)" fill="white" fill-opacity="0"/>
		</clipPath>
		<clipPath id="clip21_5154">
			<rect id="javascript " width="24.000000" height="24.000000" transform="translate(4.500000 0.000000)" fill="white" fill-opacity="0"/>
		</clipPath>
		<clipPath id="clip21_5156">
			<rect id="sass " width="32.655739" height="24.000000" fill="white" fill-opacity="0"/>
		</clipPath>
		<clipPath id="clip21_5159">
			<rect id="git-icon " width="24.000000" height="24.000000" transform="translate(4.500000 0.000000)" fill="white" fill-opacity="0"/>
		</clipPath>
		<clipPath id="clip21_5166">
			<rect id="gulp " width="10.871794" height="24.000000" transform="translate(10.875000 0.000000)" fill="white" fill-opacity="0"/>
		</clipPath>
		<clipPath id="clip21_5168">
			<rect id="wordpress logo" width="24.000000" height="24.000000" transform="translate(4.500000 0.000000)" fill="white" fill-opacity="0"/>
		</clipPath>
		<clipPath id="clip21_5171">
			<rect id="bitrix-1 logo" width="23.887417" height="24.000000" transform="translate(4.488037 0.000000)" fill="white" fill-opacity="0"/>
		</clipPath>
		<clipPath id="clip21_5173">
			<rect id="codeigniter-plain logo" width="24.000000" height="24.000000" transform="translate(4.500000 0.000000)" fill="white" fill-opacity="0"/>
		</clipPath>
	</defs>
	<rect id="codeigniter-plain logo" width="24.000000" height="24.000000" transform="translate(4.500000 0.000000)" fill="#FFFFFF" fill-opacity="0"/>
	<g clip-path="url(#clip21_5173)">
		<path id="Vector" d="M21.3203 9.16284L21.1782 9.08521C21.2531 9.26587 21.2774 9.41992 21.2748 9.55786C21.3014 9.44629 21.319 9.33105 21.3213 9.21143C21.3229 9.36011 21.305 9.5 21.2701 9.62988L21.2748 9.55762C21.2337 9.73047 21.1651 9.89062 21.0734 10.0374L21.1175 9.99048C20.5775 10.894 19.1043 11.0913 18.3777 10.1582C17.2115 8.66016 18.4017 7.04492 18.5684 5.4585C18.7767 3.47021 17.53 1.54004 15.9841 0.384766C16.8355 1.76221 15.7137 3.58472 14.8162 4.60303C13.9458 5.59106 12.8875 6.41577 11.9268 7.31274C10.895 8.2771 9.90234 9.29175 9.05444 10.4229C7.35779 12.6868 6.31885 15.5342 7.08234 18.3589C7.84509 21.1819 10.2901 22.9788 13.0512 23.614C11.6583 23.0117 10.3548 21.4814 10.3518 19.9158C10.3482 18.2085 11.4299 16.7593 12.7756 15.8071C12.6138 16.418 12.5255 16.9771 12.9261 17.5237C13.2989 18.032 13.9514 18.2786 14.5673 18.1445C16.0071 17.8298 16.0729 16.2471 15.2197 15.325C14.3757 14.4121 13.5593 13.3804 13.8804 12.0562C14.0412 11.3926 14.4489 10.7712 14.9654 10.3264C14.5683 11.3694 15.6961 12.3982 16.439 12.9099C17.7282 13.7988 19.142 14.4709 20.3273 15.5127C21.5739 16.6077 22.4946 18.0881 22.3087 19.8057C22.1069 21.667 20.6279 22.9617 18.9691 23.615C22.4746 22.8411 26.0975 20.1204 26.1711 16.2322C26.2328 13.0337 24.0387 10.572 21.3203 9.16284Z" fill="#EE4323" fill-opacity="1.000000" fill-rule="nonzero"/>
	</g>
</svg>
