<svg width="24.000000" height="23.999512" viewBox="0 0 24 23.9995" fill="none" xmlns="http://www.w3.org/2000/svg" xmlns:xlink="http://www.w3.org/1999/xlink">
	<desc>
			Created with Pixso.
	</desc>
	<defs/>
	<path id="Vector" d="M23.5473 10.9307L13.0685 0.452637C12.4655 -0.150879 11.4868 -0.150879 10.8829 0.452637L8.70703 2.62854L11.4672 5.38879C12.1087 5.17212 12.8442 5.3175 13.3556 5.82886C13.8694 6.34338 14.0137 7.08521 13.7917 7.72876L16.4518 10.3889C17.0955 10.1672 17.838 10.3108 18.3521 10.8256C19.0704 11.5437 19.0704 12.7076 18.3521 13.4263C17.6334 14.1449 16.4695 14.1449 15.7506 13.4263C15.2103 12.8854 15.0767 12.0917 15.3503 11.426L12.8695 8.94507L12.8692 15.4736C13.0443 15.5605 13.2097 15.6761 13.3556 15.8215C14.074 16.5396 14.074 17.7035 13.3556 18.4227C12.637 19.1411 11.4725 19.1411 10.7549 18.4227C10.0366 17.7035 10.0366 16.5396 10.7549 15.8215C10.9324 15.6443 11.1378 15.5103 11.3569 15.4202L11.3569 8.83081C11.1378 8.74133 10.9327 8.60803 10.7549 8.42957C10.2106 7.88599 10.0798 7.08728 10.3586 6.41895L7.63788 3.69775L0.452881 10.8822C-0.15094 11.4863 -0.15094 12.4651 0.452881 13.0686L10.9316 23.5469C11.5349 24.1504 12.5135 24.1504 13.1176 23.5469L23.5473 13.1173C24.1509 12.5135 24.1509 11.5342 23.5473 10.9307Z" fill="#DE4C36" fill-opacity="1.000000" fill-rule="nonzero"/>
</svg>
