<svg width="32.655762" height="24.000000" viewBox="0 0 32.6558 24" fill="none" xmlns="http://www.w3.org/2000/svg" xmlns:xlink="http://www.w3.org/1999/xlink">
	<desc>
			Created with Pixso.
	</desc>
	<defs>
		<clipPath id="clip11_4448">
			<rect id="figma " width="16.090914" height="24.000000" transform="translate(8.125000 0.000000)" fill="white" fill-opacity="0"/>
		</clipPath>
		<clipPath id="clip11_4457">
			<rect id="sketch" width="26.400005" height="24.000000" transform="translate(2.875000 0.000000)" fill="white" fill-opacity="0"/>
		</clipPath>
		<clipPath id="clip11_4459">
			<rect id="logo 1" width="17.907690" height="24.000000" transform="translate(7.000000 0.000000)" fill="white" fill-opacity="0"/>
		</clipPath>
		<clipPath id="clip11_4461">
			<rect id="avacode" width="17.907690" height="24.000000" transform="translate(7.000000 0.000000)" fill="white" fill-opacity="0"/>
		</clipPath>
		<clipPath id="clip11_4464">
			<rect id="photoshop " width="24.000000" height="24.000000" transform="translate(4.000000 0.000000)" fill="white" fill-opacity="0"/>
		</clipPath>
		<clipPath id="clip11_4474">
			<rect id="zeplin " width="30.144009" height="24.000000" transform="translate(1.000000 0.000000)" fill="white" fill-opacity="0"/>
		</clipPath>
		<clipPath id="clip11_4478">
			<rect id="invision " width="24.000000" height="24.000000" transform="translate(4.000000 0.000000)" fill="white" fill-opacity="0"/>
		</clipPath>
		<clipPath id="clip11_4492">
			<rect id="html " width="16.956522" height="24.000000" transform="translate(7.875000 0.000000)" fill="white" fill-opacity="0"/>
		</clipPath>
		<clipPath id="clip11_4498">
			<rect id="css-3 " width="17.174314" height="24.000000" transform="translate(7.875000 0.000000)" fill="white" fill-opacity="0"/>
		</clipPath>
		<clipPath id="clip11_4501">
			<rect id="javascript " width="24.000000" height="24.000000" transform="translate(4.500000 0.000000)" fill="white" fill-opacity="0"/>
		</clipPath>
		<clipPath id="clip11_4503">
			<rect id="sass " width="32.655739" height="24.000000" fill="white" fill-opacity="0"/>
		</clipPath>
		<clipPath id="clip11_4506">
			<rect id="git-icon " width="24.000000" height="24.000000" transform="translate(4.500000 0.000000)" fill="white" fill-opacity="0"/>
		</clipPath>
		<clipPath id="clip11_4513">
			<rect id="gulp " width="10.871794" height="24.000000" transform="translate(10.875000 0.000000)" fill="white" fill-opacity="0"/>
		</clipPath>
		<clipPath id="clip11_4515">
			<rect id="wordpress logo" width="24.000000" height="24.000000" transform="translate(4.500000 0.000000)" fill="white" fill-opacity="0"/>
		</clipPath>
		<clipPath id="clip11_4518">
			<rect id="bitrix-1 logo" width="23.887417" height="24.000000" transform="translate(4.488037 0.000000)" fill="white" fill-opacity="0"/>
		</clipPath>
		<clipPath id="clip11_4520">
			<rect id="codeigniter-plain logo" width="24.000000" height="24.000000" transform="translate(4.500000 0.000000)" fill="white" fill-opacity="0"/>
		</clipPath>
	</defs>
	<rect id="gulp " width="10.871794" height="24.000000" transform="translate(10.875000 0.000000)" fill="#FFFFFF" fill-opacity="0"/>
	<g clip-path="url(#clip11_4513)">
		<path id="Vector" d="M19.2531 23.2687L19.4835 19.4342L20.1199 18.3495C20.1199 18.3495 18.6715 18.941 16.2466 18.941C13.8217 18.941 12.3953 18.3605 12.3953 18.3605L13.1085 19.5436L13.3608 23.2687C13.3608 23.668 14.6798 23.9917 16.3069 23.9917C17.934 23.9917 19.2531 23.668 19.2531 23.2687Z" fill="#D34A47" fill-opacity="1.000000" fill-rule="nonzero"/>
		<path id="Vector" d="M18.5261 5.36206L19.0098 3.45288L21.6887 0.638306L20.9827 0.0378418L18.1465 3.03601L17.5848 5.31702C17.1779 5.30322 16.7531 5.2959 16.3162 5.2959C13.3292 5.2959 10.9077 5.63586 10.9077 6.05505C10.9077 6.47424 13.3292 6.81409 16.3162 6.81409C19.3032 6.81409 21.7246 6.47424 21.7246 6.05505C21.7246 5.74634 20.4113 5.48059 18.5261 5.36206Z" fill="#D34A47" fill-opacity="1.000000" fill-rule="nonzero"/>
		<path id="Vector" d="M18.2446 6.43103C18.2446 6.43103 18.1399 6.45447 17.8317 6.45581C17.5234 6.45703 17.3046 6.45386 17.2173 6.37451C17.1939 6.35327 17.1811 6.31091 17.1812 6.28235C17.1815 6.22778 17.2202 6.19568 17.2695 6.17566L17.3162 6.24878C17.2959 6.25574 17.2843 6.26404 17.2843 6.27283C17.2841 6.31421 17.5995 6.34253 17.8407 6.33948C18.082 6.33655 18.3735 6.31665 18.3737 6.27588C18.3737 6.26355 18.3517 6.25195 18.3134 6.2428L18.3598 6.17017C18.4223 6.18958 18.4769 6.22693 18.4767 6.29175C18.4761 6.40198 18.3358 6.4187 18.2446 6.43103Z" fill="#FFFFFF" fill-opacity="1.000000" fill-rule="nonzero"/>
		<path id="Vector" d="M21.6835 0.644043C21.7508 0.566284 21.6486 0.367554 21.4551 0.200195C21.2616 0.032959 21.0501 -0.0396729 20.9827 0.0379639C20.9153 0.115601 21.0175 0.314331 21.2111 0.481689C21.4045 0.648926 21.6161 0.72168 21.6835 0.644043Z" fill="#D34A47" fill-opacity="1.000000" fill-rule="nonzero"/>
		<path id="Vector" d="M19.1242 13.9025C19.0607 13.2925 20.4603 12.4092 20.1011 12.3809C19.3279 12.425 18.9431 13.2856 18.554 14.1871C18.4114 14.5175 17.9236 15.9261 17.6036 15.7527C17.2838 15.5793 18.0184 14.421 18.2242 13.733C17.9867 13.907 17.1154 14.5829 16.8909 13.95C16.5299 14.256 15.7586 14.4219 15.8456 13.6178C15.6536 13.9574 15.2225 14.4316 14.7052 14.2345C14.0258 13.9758 15.0989 11.8149 15.3657 11.924C15.6326 12.033 15.3119 12.5253 15.2278 12.7163C15.0432 13.1371 14.8297 13.6659 14.9723 13.7742C15.2166 13.9596 15.8812 13.0725 15.8959 13.053C16.0202 12.889 16.3744 11.8163 16.6598 11.9395C16.9453 12.0626 15.9479 13.479 16.3208 13.7601C16.396 13.8169 16.7037 13.7251 16.8909 13.5229C17.012 13.3921 16.9703 13.1023 17.3741 12.141C17.7778 11.1797 18.1377 9.98242 18.4146 10.0737C18.6915 10.1648 18.4633 10.7793 18.3639 11.0084C17.8978 12.0835 17.0917 13.8596 17.4719 13.7251C17.852 13.5907 18.0499 13.5828 18.4222 13.1479C18.7944 12.713 18.7772 11.9966 19.0253 12.0118C19.2735 12.0271 19.2319 12.2567 19.1717 12.4316C19.4159 12.1527 20.3292 11.5651 20.5497 12.147C20.8109 12.8361 19.243 13.8313 19.6339 13.7805C20.0151 13.7311 20.6326 13.3406 20.8962 12.9855L21.6219 6.47131C21.6219 6.47131 20.8917 7.07471 16.2459 7.07471C11.6001 7.07471 10.9454 6.48389 10.9454 6.48389L11.5632 12.4298C11.8912 11.4991 12.6699 9.61682 13.8974 9.67993C14.4558 9.70874 15.2012 10.7822 14.5627 10.8186C14.2924 10.834 14.265 10.2828 13.9449 10.2018C13.714 10.1434 13.3925 10.3308 13.1847 10.5339C12.7703 10.939 11.879 12.5366 11.9968 13.3331C12.1468 14.3486 13.4003 12.9802 13.6124 12.574C13.7617 12.2878 13.8626 11.4399 14.1893 11.5289C14.516 11.6179 14.1608 12.4929 13.924 13.2665C13.658 14.1353 13.5181 15.0516 13.1847 14.9462C12.8512 14.8408 13.3944 13.7194 13.3748 13.5229C13.0613 13.8116 12.4839 14.5426 11.7452 14.1808L12.1289 17.8732C12.1289 17.8732 13.1487 18.6776 16.2207 18.6776C19.2927 18.6776 20.3503 17.8857 20.3503 17.8857L20.8267 13.609C20.4369 13.988 19.2032 14.6611 19.1242 13.9025Z" fill="#D34A47" fill-opacity="1.000000" fill-rule="nonzero"/>
	</g>
</svg>
