<svg width="32.655762" height="24.000000" viewBox="0 0 32.6558 24" fill="none" xmlns="http://www.w3.org/2000/svg" xmlns:xlink="http://www.w3.org/1999/xlink">
	<desc>
			Created with Pixso.
	</desc>
	<defs>
		<clipPath id="clip11_1077">
			<rect id="html " width="16.956522" height="24.000000" transform="translate(7.875000 0.000000)" fill="white" fill-opacity="0"/>
		</clipPath>
		<clipPath id="clip11_1083">
			<rect id="css-3 " width="17.174314" height="24.000000" transform="translate(7.875000 0.000000)" fill="white" fill-opacity="0"/>
		</clipPath>
		<clipPath id="clip11_1086">
			<rect id="javascript " width="24.000000" height="24.000000" transform="translate(4.500000 0.000000)" fill="white" fill-opacity="0"/>
		</clipPath>
		<clipPath id="clip11_1088">
			<rect id="sass " width="32.655739" height="24.000000" fill="white" fill-opacity="0"/>
		</clipPath>
		<clipPath id="clip11_1091">
			<rect id="git-icon " width="24.000000" height="24.000000" transform="translate(4.500000 0.000000)" fill="white" fill-opacity="0"/>
		</clipPath>
		<clipPath id="clip11_1098">
			<rect id="gulp " width="10.871794" height="24.000000" transform="translate(10.875000 0.000000)" fill="white" fill-opacity="0"/>
		</clipPath>
		<clipPath id="clip11_1100">
			<rect id="wordpress logo" width="24.000000" height="24.000000" transform="translate(4.500000 0.000000)" fill="white" fill-opacity="0"/>
		</clipPath>
		<clipPath id="clip11_1103">
			<rect id="bitrix-1 logo" width="23.887417" height="24.000000" transform="translate(4.488037 0.000000)" fill="white" fill-opacity="0"/>
		</clipPath>
		<clipPath id="clip11_1105">
			<rect id="codeigniter-plain logo" width="24.000000" height="24.000000" transform="translate(4.500000 0.000000)" fill="white" fill-opacity="0"/>
		</clipPath>
	</defs>
	<rect id="html " width="16.956522" height="24.000000" transform="translate(7.875000 0.000000)" fill="#FFFFFF" fill-opacity="0"/>
	<g clip-path="url(#clip11_1077)">
		<path id="Path" d="M24.8019 4.70471L23.2626 22.0139L16.3428 23.9395L9.4422 22.0166L7.90442 4.70471L24.8019 4.70471Z" fill="#E44D26" fill-opacity="1.000000" fill-rule="evenodd"/>
		<path id="Path" d="M16.3533 22.4675L21.9447 20.9116L23.2603 6.12012L16.3533 6.12012L16.3533 22.4675Z" fill="#F16529" fill-opacity="1.000000" fill-rule="evenodd"/>
		<path id="Path" d="M13.3607 10.3667L16.3531 10.3667L16.3531 8.24341L11.0488 8.24341L11.0994 8.81299L11.6193 14.6641L16.3531 14.6641L16.3531 12.5409L13.554 12.5409L13.3607 10.3667Z" fill="#EBEBEB" fill-opacity="1.000000" fill-rule="evenodd"/>
		<path id="Path" d="M13.8374 15.7258L11.7139 15.7258L12.0103 19.0596L16.3434 20.267L16.3532 20.2643L16.3532 18.0553L16.3439 18.0577L13.988 17.4192L13.8374 15.7258Z" fill="#EBEBEB" fill-opacity="1.000000" fill-rule="evenodd"/>
		<path id="Path" d="M9.47656 0L10.5516 0L10.5516 1.06604L11.535 1.06604L11.535 0L12.61 0L12.61 3.22827L11.535 3.22827L11.535 2.14722L10.5516 2.14722L10.5516 3.22827L9.47662 3.22827L9.47662 0L9.47656 0Z" fill="#FFFFFF" fill-opacity="1.000000" fill-rule="evenodd"/>
		<path id="Path" d="M14.0237 1.07056L13.0773 1.07056L13.0773 0L16.0456 0L16.0456 1.07056L15.0988 1.07056L15.0988 3.22827L14.0237 3.22827L14.0237 1.07056L14.0237 1.07056Z" fill="#FFFFFF" fill-opacity="1.000000" fill-rule="evenodd"/>
		<path id="Path" d="M16.5167 0L17.6377 0L18.3272 1.13428L19.0161 0L20.1374 0L20.1374 3.22827L19.0668 3.22827L19.0668 1.62817L18.3272 2.776L18.3087 2.776L17.5686 1.62817L17.5686 3.22827L16.5167 3.22827L16.5167 0Z" fill="#FFFFFF" fill-opacity="1.000000" fill-rule="evenodd"/>
		<path id="Path" d="M20.6724 0L21.7477 0L21.7477 2.16113L23.2595 2.16113L23.2595 3.22827L20.6724 3.22827L20.6724 0Z" fill="#FFFFFF" fill-opacity="1.000000" fill-rule="evenodd"/>
		<path id="Path" d="M16.3459 14.6639L18.9508 14.6639L18.7053 17.4177L16.3459 18.0569L16.3459 20.2657L20.6826 19.0594L20.7144 18.7007L21.2115 13.111L21.2632 12.5408L16.3459 12.5408L16.3459 14.6639Z" fill="#FFFFFF" fill-opacity="1.000000" fill-rule="evenodd"/>
		<path id="Path" d="M16.3459 10.3615L16.3459 10.3667L21.4556 10.3667L21.498 9.8894L21.5945 8.81299L21.645 8.24341L16.3459 8.24341L16.3459 10.3615Z" fill="#FFFFFF" fill-opacity="1.000000" fill-rule="evenodd"/>
	</g>
</svg>
