<svg width="32.655762" height="24.000000" viewBox="0 0 32.6558 24" fill="none" xmlns="http://www.w3.org/2000/svg" xmlns:xlink="http://www.w3.org/1999/xlink">
	<desc>
			Created with Pixso.
	</desc>
	<defs>
		<clipPath id="clip11_3476">
			<rect id="figma " width="16.090914" height="24.000000" transform="translate(8.125000 0.000000)" fill="white" fill-opacity="0"/>
		</clipPath>
		<clipPath id="clip11_3485">
			<rect id="sketch" width="26.400005" height="24.000000" transform="translate(2.875000 0.000000)" fill="white" fill-opacity="0"/>
		</clipPath>
		<clipPath id="clip11_3487">
			<rect id="logo 1" width="17.907690" height="24.000000" transform="translate(7.000000 0.000000)" fill="white" fill-opacity="0"/>
		</clipPath>
		<clipPath id="clip11_3489">
			<rect id="avacode" width="17.907690" height="24.000000" transform="translate(7.000000 0.000000)" fill="white" fill-opacity="0"/>
		</clipPath>
		<clipPath id="clip11_3492">
			<rect id="photoshop " width="24.000000" height="24.000000" transform="translate(4.000000 0.000000)" fill="white" fill-opacity="0"/>
		</clipPath>
		<clipPath id="clip11_3502">
			<rect id="zeplin " width="30.144009" height="24.000000" transform="translate(1.000000 0.000000)" fill="white" fill-opacity="0"/>
		</clipPath>
		<clipPath id="clip11_3506">
			<rect id="invision " width="24.000000" height="24.000000" transform="translate(4.000000 0.000000)" fill="white" fill-opacity="0"/>
		</clipPath>
		<clipPath id="clip11_3520">
			<rect id="html " width="16.956522" height="24.000000" transform="translate(7.875000 0.000000)" fill="white" fill-opacity="0"/>
		</clipPath>
		<clipPath id="clip11_3526">
			<rect id="css-3 " width="17.174314" height="24.000000" transform="translate(7.875000 0.000000)" fill="white" fill-opacity="0"/>
		</clipPath>
		<clipPath id="clip11_3529">
			<rect id="javascript " width="24.000000" height="24.000000" transform="translate(4.500000 0.000000)" fill="white" fill-opacity="0"/>
		</clipPath>
		<clipPath id="clip11_3531">
			<rect id="sass " width="32.655739" height="24.000000" fill="white" fill-opacity="0"/>
		</clipPath>
		<clipPath id="clip11_3534">
			<rect id="git-icon " width="24.000000" height="24.000000" transform="translate(4.500000 0.000000)" fill="white" fill-opacity="0"/>
		</clipPath>
		<clipPath id="clip11_3541">
			<rect id="gulp " width="10.871794" height="24.000000" transform="translate(10.875000 0.000000)" fill="white" fill-opacity="0"/>
		</clipPath>
		<clipPath id="clip11_3543">
			<rect id="wordpress logo" width="24.000000" height="24.000000" transform="translate(4.500000 0.000000)" fill="white" fill-opacity="0"/>
		</clipPath>
		<clipPath id="clip11_3546">
			<rect id="bitrix-1 logo" width="23.887417" height="24.000000" transform="translate(4.488037 0.000000)" fill="white" fill-opacity="0"/>
		</clipPath>
		<clipPath id="clip11_3548">
			<rect id="codeigniter-plain logo" width="24.000000" height="24.000000" transform="translate(4.500000 0.000000)" fill="white" fill-opacity="0"/>
		</clipPath>
	</defs>
	<rect id="invision " width="24.000000" height="24.000000" transform="translate(4.000000 0.000000)" fill="#FFFFFF" fill-opacity="0"/>
	<g clip-path="url(#clip11_3506)">
		<path id="Path" d="M25.8243 0L6.17566 0C4.97412 0 4 0.974121 4 2.17566L4 21.8243C4 23.0259 4.97412 24 6.17566 24L25.8243 24C27.0259 24 28 23.0259 28 21.8243L28 2.17566C28 0.974121 27.0259 0 25.8243 0Z" fill="#DC395F" fill-opacity="1.000000" fill-rule="nonzero"/>
		<path id="Path" d="M12.0208 7.5509C12.8186 7.5509 13.4869 6.92554 13.4869 6.10608C13.4869 5.28699 12.8186 4.66187 12.0208 4.66187C11.223 4.66187 10.5548 5.28699 10.5548 6.10608C10.5548 6.92554 11.223 7.5509 12.0208 7.5509Z" fill="#FFFFFF" fill-opacity="1.000000" fill-rule="nonzero"/>
		<path id="Vector" d="M8.98077 15.2875C8.89465 15.6541 8.85138 16.0499 8.85138 16.3728C8.85138 17.645 9.54132 18.4897 11.0075 18.4897C12.2235 18.4897 13.2092 17.7676 13.9189 16.6016L13.4856 18.3409L15.9001 18.3409L17.2802 12.806C17.6251 11.4047 18.2934 10.6772 19.3069 10.6772C20.1046 10.6772 20.6005 11.1733 20.6005 11.9923C20.6005 12.2297 20.5789 12.4882 20.4927 12.7686L19.7811 15.3126C19.6732 15.6792 19.6303 16.046 19.6303 16.3906C19.6303 17.5984 20.3416 18.4819 21.8293 18.4819C23.1014 18.4819 24.1147 17.663 24.6753 15.7009L23.7267 15.3346C23.2523 16.6492 22.8427 16.8868 22.5193 16.8868C22.1959 16.8868 22.0233 16.6714 22.0233 16.2404C22.0233 16.0464 22.0666 15.8309 22.1312 15.5717L22.8212 13.093C22.9936 12.5111 23.0584 11.995 23.0584 11.5208C23.0584 9.66663 21.9371 8.69897 20.5789 8.69897C19.3069 8.69897 18.0131 9.84631 17.3665 11.0538L17.8407 8.88647L14.1539 8.88647L13.6364 10.7955L15.3613 10.7955L14.2993 15.0481C13.465 16.9022 11.9329 16.9324 11.7406 16.8893C11.4249 16.8181 11.223 16.6981 11.223 16.2878C11.223 16.0511 11.2661 15.7112 11.3738 15.3011L12.991 8.88647L8.89465 8.88647L8.37714 10.7955L10.0803 10.7955L8.98077 15.2875Z" fill="#FFFFFF" fill-opacity="1.000000" fill-rule="nonzero"/>
	</g>
</svg>
