<svg width="22.500000" height="22.500000" viewBox="0 0 22.5 22.5" fill="none" xmlns="http://www.w3.org/2000/svg" xmlns:xlink="http://www.w3.org/1999/xlink">
	<desc>
			Created with Pixso.
	</desc>
	<defs/>
	<path id="Vector" d="M22.5 16.8242C22.5 19.9541 19.9542 22.5 16.8242 22.5L5.67578 22.5C2.54626 22.5 0 19.9541 0 16.8242L0 5.67578C0 2.54614 2.54626 0 5.67578 0L16.8242 0C19.9542 0 22.5 2.54614 22.5 5.67578L22.5 16.8242ZM5.67578 2.44873L16.8241 2.44873C18.604 2.44873 20.0516 3.89648 20.0516 5.67578L20.0516 16.8242C20.0516 18.604 18.6035 20.0518 16.8241 20.0518L5.67578 20.0518C3.89636 20.0518 2.44861 18.6035 2.44861 16.8242L2.44861 5.67578C2.44861 3.89648 3.89636 2.44873 5.67578 2.44873ZM17.2313 6.65356C16.4749 6.65356 15.8599 6.03833 15.8599 5.28247C15.8599 4.52661 16.4749 3.91138 17.2313 3.91138C17.9872 3.91138 18.6023 4.52661 18.6023 5.28247C18.6023 6.03833 17.9872 6.65356 17.2313 6.65356ZM5.45532 11.25C5.45532 14.4453 8.05493 17.0449 11.25 17.0449C14.4451 17.0449 17.045 14.4453 17.045 11.25C17.045 8.05493 14.4454 5.45532 11.25 5.45532C8.05493 5.45532 5.45532 8.05493 5.45532 11.25ZM11.25 7.90405C9.40552 7.90405 7.90369 9.40527 7.90369 11.2495C7.90369 13.0947 9.40552 14.5962 11.25 14.5962C13.0952 14.5962 14.5959 13.0947 14.5959 11.2495C14.5959 9.40576 13.0948 7.90405 11.25 7.90405Z" fill="#3A4459" fill-opacity="1.000000" fill-rule="evenodd"/>
</svg>
