<svg width="24.000000" height="24.000000" viewBox="0 0 24 24" fill="none" xmlns="http://www.w3.org/2000/svg" xmlns:xlink="http://www.w3.org/1999/xlink">
	<desc>
			Created with Pixso.
	</desc>
	<defs>
		<clipPath id="clip20_1761">
			<rect id="javascript " width="24.000000" height="24.000000" fill="white" fill-opacity="0"/>
		</clipPath>
	</defs>
	<rect id="javascript " width="24.000000" height="24.000000" fill="#FFFFFF" fill-opacity="0"/>
	<g clip-path="url(#clip20_1761)">
		<path id="Vector" d="M0.26416 0.264038L23.7361 0.264038L23.7361 23.7362L0.26416 23.7362L0.26416 0.264038Z" fill="#F0DB4F" fill-opacity="1.000000" fill-rule="nonzero"/>
		<path id="Vector" d="M21.8149 18.1379C21.6431 17.0671 20.9448 16.1677 18.8765 15.329C18.158 14.9988 17.3569 14.7623 17.1184 14.2179C17.0337 13.901 17.0225 13.7225 17.0759 13.5306C17.23 12.9082 17.9729 12.7141 18.562 12.8926C18.9412 13.0198 19.3003 13.312 19.5168 13.7783C20.5298 13.1224 20.5276 13.1268 21.2349 12.676C20.9761 12.2747 20.8379 12.0894 20.6682 11.9176C20.0591 11.2372 19.229 10.8867 17.9016 10.9136L17.21 11.0029C16.5474 11.1704 15.916 11.5182 15.5457 11.9845C14.4346 13.2452 14.7515 15.4518 16.1035 16.3599C17.4353 17.3596 19.3921 17.587 19.6421 18.522C19.8853 19.6664 18.801 20.0369 17.7231 19.9053C16.929 19.7401 16.4873 19.3364 16.0098 18.6023C15.1306 19.1111 15.1306 19.1111 14.2268 19.6307C14.4412 20.0994 14.6665 20.3114 15.0256 20.7174C16.7258 22.442 20.9807 22.3572 21.7439 19.7468C21.7747 19.6572 21.9802 19.0594 21.8149 18.1379ZM13.0242 11.0518L10.8286 11.0518L10.8196 16.7278C10.8196 17.9348 10.8821 19.0415 10.6858 19.3806C10.3645 20.0479 9.53223 19.9651 9.15308 19.8357C8.76685 19.646 8.57056 19.3762 8.34326 18.9948C8.28076 18.8853 8.23389 18.8005 8.21802 18.7939L6.43311 19.8871C6.72998 20.4963 7.16724 21.025 7.72729 21.3685C8.56396 21.8707 9.68823 22.0247 10.8643 21.7546C11.6296 21.5316 12.29 21.0698 12.6357 20.3669C13.1357 19.4453 13.0283 18.33 13.0239 17.0962C13.0352 15.0834 13.0242 13.0709 13.0242 11.0518Z" fill="#323330" fill-opacity="1.000000" fill-rule="nonzero"/>
	</g>
</svg>
