<svg width="112.000000" height="28.000000" viewBox="0 0 112 28" fill="none" xmlns="http://www.w3.org/2000/svg" xmlns:xlink="http://www.w3.org/1999/xlink">
	<desc>
			Created with Pixso.
	</desc>
	<defs/>
	<path id="logo" d="M75.9448 23.9231Q74.3774 25.4914 72.5 26.4564Q69.4968 28 65.7002 28Q61.9036 28 58.9004 26.4564Q57.0229 25.4914 55.4556 23.9231C52.739 21.2051 51.3809 17.8974 51.3809 14C51.3809 10.1026 52.739 6.79486 55.4556 4.07693Q57.0229 2.50861 58.9004 1.54361Q61.9036 0 65.7002 0Q69.4968 0 72.5 1.54361Q74.3774 2.50861 75.9448 4.07693Q77.8835 6.01682 78.8999 8.3573Q80.0193 10.9356 80.0193 14Q80.0193 17.0644 78.8999 19.6427Q77.8835 21.9832 75.9448 23.9231ZM0 27.4615L7.37305 27.4615L9.6626 21.7692L19.752 21.7692L22.0415 27.4615L29.531 27.4615L18.1221 0.384613L11.4089 0.384613L0 27.4615ZM35.2991 27.4615L42.2842 27.4615L42.2842 6.61539L50.4719 6.61539L50.4719 0.538452L27.1499 0.538452L27.1499 6.61539L35.2991 6.61539L35.2991 27.4615ZM84.3704 27.4615L91.3555 27.4615L91.3555 11.0385L96.3613 18.2692L100.203 18.2692L105.054 11.0385L105.054 27.4615L112 27.4615L112 0.538452L105.093 0.538452L98.1853 10.8846L91.3167 0.538452L84.3704 0.538452L84.3704 27.4615ZM60.5779 19.4615C61.949 20.8974 63.6565 21.6154 65.7002 21.6154C67.718 21.6154 69.4126 20.8974 70.7837 19.4615Q71.429 18.7858 71.8718 17.9965Q72.8403 16.27 72.8403 14Q72.8403 11.73 71.8718 10.0035L71.8716 10.0034Q71.429 9.21414 70.7837 8.53845C69.4126 7.10257 67.718 6.38461 65.7002 6.38461C63.6565 6.38461 61.949 7.10257 60.5779 8.53845Q60.0474 9.09445 59.6565 9.73544Q58.5601 11.5333 58.5601 14Q58.5601 16.4667 59.6565 18.2646Q60.0474 18.9056 60.5779 19.4615ZM11.8745 16.2308L14.7073 9.03845L17.54 16.2308L11.8745 16.2308Z" fill="#8000FF" fill-opacity="1.000000" fill-rule="evenodd"/>
</svg>
