<svg width="112.000000" height="28.000000" viewBox="0 0 112 28" fill="none" xmlns="http://www.w3.org/2000/svg" xmlns:xlink="http://www.w3.org/1999/xlink">
	<desc>
			Created with Pixso.
	</desc>
	<defs/>
	<path id="logo" d="M75.9448 23.9229Q74.3774 25.4912 72.4999 26.4565Q69.4967 28 65.7002 28Q61.9036 28 58.9005 26.4565Q57.0229 25.4912 55.4555 23.9229C52.7391 21.2051 51.3809 17.8975 51.3809 14C51.3809 10.1025 52.7391 6.79492 55.4555 4.0769Q57.0229 2.50854 58.9004 1.5437Q61.9036 0 65.7002 0Q69.4967 0 72.4999 1.5437Q74.3774 2.50854 75.9448 4.0769Q77.8836 6.01685 78.8999 8.35718Q80.0194 10.9355 80.0194 14Q80.0194 17.0645 78.8999 19.6426Q77.8836 21.9834 75.9448 23.9229ZM0 27.4614L7.37305 27.4614L9.6626 21.769L19.752 21.769L22.0415 27.4614L29.531 27.4614L18.1222 0.384521L11.4088 0.384521L0 27.4614ZM35.2991 27.4614L42.2841 27.4614L42.2841 6.61548L50.472 6.61548L50.472 0.538574L27.1499 0.538574L27.1499 6.61548L35.2991 6.61548L35.2991 27.4614ZM84.3705 27.4614L91.3555 27.4614L91.3555 11.0386L96.3614 18.269L100.203 18.269L105.054 11.0386L105.054 27.4614L112 27.4614L112 0.538574L105.093 0.538574L98.1852 10.8845L91.3167 0.538574L84.3705 0.538574L84.3705 27.4614ZM60.5778 19.4614C61.949 20.8975 63.6564 21.6152 65.7002 21.6152C67.718 21.6152 69.4126 20.8975 70.7837 19.4614Q71.429 18.7856 71.8718 17.9966Q72.8404 16.27 72.8404 14Q72.8404 11.73 71.8718 10.0034L71.8717 10.0034Q71.4289 9.21411 70.7837 8.53857C69.4126 7.10254 67.718 6.38452 65.7002 6.38452C63.6564 6.38452 61.949 7.10254 60.5778 8.53857Q60.0475 9.09448 59.6565 9.73535Q58.5599 11.5332 58.5599 14Q58.5599 16.4668 59.6566 18.2646Q60.0475 18.9058 60.5778 19.4614ZM11.8745 16.231L14.7073 9.03857L17.5401 16.231L11.8745 16.231Z" fill="#536280" fill-opacity="1.000000" fill-rule="evenodd"/>
</svg>
