<svg width="40.000000" height="40.000000" viewBox="0 0 40 40" fill="none" xmlns="http://www.w3.org/2000/svg" xmlns:xlink="http://www.w3.org/1999/xlink">
	<desc>
			Created with Pixso.
	</desc>
	<defs/>
	<rect id="sun 2" width="24.000000" height="24.000000" transform="translate(8.000000 8.000000)" fill="#FFFFFF" fill-opacity="0"/>
	<rect id="Rectangle 162" rx="20.000000" width="40.000000" height="40.000000" fill="#8000FF" fill-opacity="1.000000"/>
	<path id="Vector" d="M28.7888 19.876C27.7788 22.2372 25.4321 23.8901 22.7 23.8828C19.0847 23.8732 16.1267 20.9152 16.1172 17.3C16.1099 14.5677 17.7627 12.2211 20.124 11.2111C20.3977 11.0939 20.3127 10.6818 20.0149 10.6813C20.01 10.6813 20.0049 10.6813 20 10.6813C14.8533 10.6813 10.6812 14.8534 10.6812 20C10.6812 23.9277 13.1113 27.2874 16.55 28.6586C16.7195 28.7261 16.9167 28.6702 17.0142 28.516C17.1597 28.2858 17.4224 28.1373 17.7188 28.1554C18.0674 28.1766 18.3638 28.4377 18.4319 28.7804C18.4382 28.8123 18.4424 28.8436 18.4446 28.8748C18.4585 29.0615 18.595 29.215 18.7808 29.2393C19.1797 29.2915 19.5867 29.3187 19.9998 29.3187C25.1465 29.3187 29.3186 25.1466 29.3186 20C29.3186 19.995 29.3186 19.99 29.3186 19.985C29.3181 19.6871 28.906 19.6022 28.7888 19.876Z" fill="#B3BBE6" fill-opacity="1.000000" fill-rule="nonzero"/>
	<path id="Vector" d="M29.3186 19.9849C29.3181 19.687 28.906 19.6021 28.7891 19.876C28.624 20.2618 28.4226 20.6283 28.1902 20.9722C27.7224 25.4843 24.0352 29.0397 19.4653 29.3026C19.6423 29.3126 19.8203 29.3187 20 29.3187C25.1465 29.3187 29.3186 25.1466 29.3186 20C29.3186 19.995 29.3186 19.99 29.3186 19.9849Z" fill="#5165BF" fill-opacity="1.000000" fill-rule="nonzero"/>
	<path id="Vector" d="M19.0459 11.2111C16.6848 12.2211 15.0317 14.5677 15.0391 17.3C15.0486 20.9152 18.0066 23.8732 21.6218 23.8828C21.8091 23.8833 21.9941 23.8754 22.1772 23.8606C18.804 23.5836 16.1265 20.7394 16.1172 17.3C16.1099 14.5677 17.7629 12.2211 20.124 11.2111C20.3979 11.0939 20.313 10.6818 20.0151 10.6813C20.01 10.6813 20.0051 10.6813 20 10.6813C19.6924 10.6813 19.3884 10.6967 19.0884 10.7257C19.2539 10.8352 19.2649 11.1173 19.0459 11.2111Z" fill="#5165BF" fill-opacity="1.000000" fill-rule="nonzero"/>
	<path id="Vector" d="M26.2126 30.5203L25.7876 30.5203L25.7876 30.0953C25.7876 29.9011 25.6301 29.7438 25.436 29.7438C25.2419 29.7438 25.0845 29.9011 25.0845 30.0953L25.0845 30.5203L24.6594 30.5203C24.4653 30.5203 24.3079 30.6777 24.3079 30.8718C24.3079 31.066 24.4653 31.2234 24.6594 31.2234L25.0845 31.2234L25.0845 31.6484C25.0845 31.8427 25.2419 32 25.436 32C25.6301 32 25.7876 31.8427 25.7876 31.6484L25.7876 31.2234L26.2126 31.2234C26.4067 31.2234 26.5642 31.066 26.5642 30.8718C26.5642 30.6777 26.4067 30.5203 26.2126 30.5203Z" fill="#B2BBE5" fill-opacity="1.000000" fill-rule="nonzero"/>
	<path id="Vector" d="M14.1758 22.3297C14.1758 22.7585 13.8281 23.1062 13.3992 23.1062C12.9702 23.1062 12.6226 22.7585 12.6226 22.3297C12.6226 21.9008 12.9702 21.5531 13.3992 21.5531C13.8281 21.5531 14.1758 21.9008 14.1758 22.3297Z" fill="#8796DC" fill-opacity="1.000000" fill-rule="evenodd"/>
	<path id="Vector" d="M14.8977 18.9254C15.0618 19.3218 14.8738 19.7761 14.4775 19.9404C14.0811 20.1047 13.6267 19.9166 13.4624 19.5203C13.2981 19.124 13.4863 18.6696 13.8826 18.5052C14.2788 18.3411 14.7334 18.5292 14.8977 18.9254Z" fill="#DFE3F2" fill-opacity="1.000000" fill-rule="evenodd"/>
	<path id="Vector" d="M29.707 25.861C29.5129 25.861 29.3555 26.0183 29.3555 26.2125L29.3555 26.9891C29.3555 27.1833 29.5129 27.3407 29.707 27.3407C29.9011 27.3407 30.0586 27.1833 30.0586 26.9891L30.0586 26.2125C30.0586 26.0183 29.9011 25.861 29.707 25.861Z" fill="#7E8BC8" fill-opacity="1.000000" fill-rule="nonzero"/>
	<path id="Vector" d="M29.707 28.9672C29.5129 28.9672 29.3555 29.1245 29.3555 29.3187L29.3555 30.0952C29.3555 30.2894 29.5129 30.4468 29.707 30.4468C29.9011 30.4468 30.0586 30.2894 30.0586 30.0952L30.0586 29.3187C30.0586 29.1245 29.9011 28.9672 29.707 28.9672Z" fill="#7E8BC8" fill-opacity="1.000000" fill-rule="nonzero"/>
	<path id="Vector" d="M31.6484 27.8024L30.8718 27.8024C30.6777 27.8024 30.5203 27.9597 30.5203 28.1539C30.5203 28.3481 30.6777 28.5055 30.8718 28.5055L31.6484 28.5055C31.8425 28.5055 32 28.3481 32 28.1539C32 27.9597 31.8425 27.8024 31.6484 27.8024Z" fill="#7E8BC8" fill-opacity="1.000000" fill-rule="nonzero"/>
	<path id="Vector" d="M28.5422 27.8024L27.7656 27.8024C27.5715 27.8024 27.4141 27.9597 27.4141 28.1539C27.4141 28.3481 27.5715 28.5055 27.7656 28.5055L28.5422 28.5055C28.7363 28.5055 28.8938 28.3481 28.8938 28.1539C28.8938 27.9597 28.7363 27.8024 28.5422 27.8024Z" fill="#7E8BC8" fill-opacity="1.000000" fill-rule="nonzero"/>
	<path id="Vector" d="M15.3408 8.77661L14.9158 8.77661L14.9158 8.35156C14.9158 8.15735 14.7583 8 14.5642 8C14.3699 8 14.2126 8.15735 14.2126 8.35156L14.2126 8.77661L13.7876 8.77661C13.5935 8.77661 13.436 8.93396 13.436 9.12817C13.436 9.32227 13.5935 9.47974 13.7876 9.47974L14.2126 9.47974L14.2126 9.90466C14.2126 10.0989 14.3699 10.2562 14.5642 10.2562C14.7583 10.2562 14.9158 10.0989 14.9158 9.90466L14.9158 9.47974L15.3408 9.47974C15.5349 9.47974 15.6924 9.32227 15.6924 9.12817C15.6924 8.93396 15.5349 8.77661 15.3408 8.77661Z" fill="#B2BBE5" fill-opacity="1.000000" fill-rule="nonzero"/>
	<path id="Vector" d="M10.293 9.55322C10.0989 9.55322 9.94141 9.71057 9.94141 9.90479L9.94141 10.6813C9.94141 10.8755 10.0989 11.0328 10.293 11.0328C10.4871 11.0328 10.6445 10.8755 10.6445 10.6813L10.6445 9.90479C10.6445 9.71057 10.4871 9.55322 10.293 9.55322Z" fill="#7E8BC8" fill-opacity="1.000000" fill-rule="nonzero"/>
	<path id="Vector" d="M10.293 12.6594C10.0989 12.6594 9.94141 12.8168 9.94141 13.011L9.94141 13.7875C9.94141 13.9817 10.0989 14.139 10.293 14.139C10.4871 14.139 10.6445 13.9817 10.6445 13.7875L10.6445 13.011C10.6445 12.8168 10.4871 12.6594 10.293 12.6594Z" fill="#7E8BC8" fill-opacity="1.000000" fill-rule="nonzero"/>
	<path id="Vector" d="M12.2344 11.4945L11.4578 11.4945C11.2637 11.4945 11.1062 11.6519 11.1062 11.8461C11.1062 12.0403 11.2637 12.1976 11.4578 12.1976L12.2344 12.1976C12.4285 12.1976 12.5859 12.0403 12.5859 11.8461C12.5859 11.6519 12.4285 11.4945 12.2344 11.4945Z" fill="#7E8BC8" fill-opacity="1.000000" fill-rule="nonzero"/>
	<path id="Vector" d="M9.12817 11.4945L8.35156 11.4945C8.15747 11.4945 8 11.6519 8 11.8461C8 12.0403 8.15747 12.1976 8.35156 12.1976L9.12817 12.1976C9.32227 12.1976 9.47974 12.0403 9.47974 11.8461C9.47974 11.6519 9.32227 11.4945 9.12817 11.4945Z" fill="#7E8BC8" fill-opacity="1.000000" fill-rule="nonzero"/>
</svg>
