<svg width="20.000000" height="20.000000" viewBox="0 0 20 20" fill="none" xmlns="http://www.w3.org/2000/svg" xmlns:xlink="http://www.w3.org/1999/xlink">
	<desc>
			Created with Pixso.
	</desc>
	<defs/>
	<path id="Vector" d="M3.46289 2.43298C5.27759 0.860657 7.59888 -0.00335693 10 0C15.5229 0 20 4.47699 20 10C20 12.136 19.3301 14.116 18.1899 15.74L15 10L18 10C18.0002 8.43164 17.5393 6.89783 16.6746 5.58929C15.8101 4.2807 14.5798 3.25519 13.1372 2.64014C11.6943 2.02509 10.1028 1.84772 8.56006 2.13C7.01709 2.41235 5.59155 3.14191 4.45996 4.22803L3.46289 2.43298ZM16.5371 17.567C14.7224 19.1393 12.4011 20.0034 10 20C4.47705 20 0 15.523 0 10C0 7.86401 0.669922 5.88403 1.81006 4.26001L5 10L2 10C1.99976 11.5684 2.46069 13.1022 3.32544 14.4108C4.18994 15.7193 5.42017 16.7449 6.86279 17.3599C8.30566 17.9749 9.89722 18.1523 11.4399 17.87C12.9829 17.5876 14.4084 16.8581 15.54 15.772L16.5371 17.567Z" fill="#111621" fill-opacity="1.000000" fill-rule="nonzero"/>
</svg>
