<svg width="14.000000" height="22.000000" viewBox="0 0 14 22" fill="none" xmlns="http://www.w3.org/2000/svg" xmlns:xlink="http://www.w3.org/1999/xlink">
	<desc>
			Created with Pixso.
	</desc>
	<defs/>
	<path id="Vector" d="M2 2L13 2C13.2652 2 13.5196 2.10547 13.7071 2.29297C13.8947 2.48047 14 2.73486 14 3L14 21C14 21.2651 13.8947 21.5195 13.7071 21.707C13.5196 21.8945 13.2652 22 13 22L1 22C0.734802 22 0.480408 21.8945 0.292908 21.707C0.105347 21.5195 0 21.2651 0 21L0 0L2 0L2 2ZM2 9L12 9L12 4L2 4L2 9ZM2 11L2 20L12 20L12 11L2 11Z" fill="#8000FF" fill-opacity="1.000000" fill-rule="nonzero"/>
</svg>
