<svg width="32.655762" height="24.000000" viewBox="0 0 32.6558 24" fill="none" xmlns="http://www.w3.org/2000/svg" xmlns:xlink="http://www.w3.org/1999/xlink">
	<desc>
			Created with Pixso.
	</desc>
	<defs>
		<clipPath id="clip11_2180">
			<rect id="figma " width="16.090914" height="24.000000" transform="translate(8.125000 0.000000)" fill="white" fill-opacity="0"/>
		</clipPath>
		<clipPath id="clip11_2189">
			<rect id="sketch" width="26.400005" height="24.000000" transform="translate(2.875000 0.000000)" fill="white" fill-opacity="0"/>
		</clipPath>
		<clipPath id="clip11_2191">
			<rect id="logo 1" width="17.907690" height="24.000000" transform="translate(7.000000 0.000000)" fill="white" fill-opacity="0"/>
		</clipPath>
		<clipPath id="clip11_2193">
			<rect id="avacode" width="17.907690" height="24.000000" transform="translate(7.000000 0.000000)" fill="white" fill-opacity="0"/>
		</clipPath>
		<clipPath id="clip11_2196">
			<rect id="photoshop " width="24.000000" height="24.000000" transform="translate(4.000000 0.000000)" fill="white" fill-opacity="0"/>
		</clipPath>
		<clipPath id="clip11_2206">
			<rect id="zeplin " width="30.144009" height="24.000000" transform="translate(1.000000 0.000000)" fill="white" fill-opacity="0"/>
		</clipPath>
		<clipPath id="clip11_2210">
			<rect id="invision " width="24.000000" height="24.000000" transform="translate(4.000000 0.000000)" fill="white" fill-opacity="0"/>
		</clipPath>
		<clipPath id="clip11_2224">
			<rect id="html " width="16.956522" height="24.000000" transform="translate(7.875000 0.000000)" fill="white" fill-opacity="0"/>
		</clipPath>
		<clipPath id="clip11_2230">
			<rect id="css-3 " width="17.174314" height="24.000000" transform="translate(7.875000 0.000000)" fill="white" fill-opacity="0"/>
		</clipPath>
		<clipPath id="clip11_2233">
			<rect id="javascript " width="24.000000" height="24.000000" transform="translate(4.500000 0.000000)" fill="white" fill-opacity="0"/>
		</clipPath>
		<clipPath id="clip11_2235">
			<rect id="sass " width="32.655739" height="24.000000" fill="white" fill-opacity="0"/>
		</clipPath>
		<clipPath id="clip11_2238">
			<rect id="git-icon " width="24.000000" height="24.000000" transform="translate(4.500000 0.000000)" fill="white" fill-opacity="0"/>
		</clipPath>
		<clipPath id="clip11_2245">
			<rect id="gulp " width="10.871794" height="24.000000" transform="translate(10.875000 0.000000)" fill="white" fill-opacity="0"/>
		</clipPath>
		<clipPath id="clip11_2247">
			<rect id="wordpress logo" width="24.000000" height="24.000000" transform="translate(4.500000 0.000000)" fill="white" fill-opacity="0"/>
		</clipPath>
		<clipPath id="clip11_2250">
			<rect id="bitrix-1 logo" width="23.887417" height="24.000000" transform="translate(4.488037 0.000000)" fill="white" fill-opacity="0"/>
		</clipPath>
		<clipPath id="clip11_2252">
			<rect id="codeigniter-plain logo" width="24.000000" height="24.000000" transform="translate(4.500000 0.000000)" fill="white" fill-opacity="0"/>
		</clipPath>
	</defs>
	<rect id="photoshop " width="24.000000" height="24.000000" transform="translate(4.000000 0.000000)" fill="#FFFFFF" fill-opacity="0"/>
	<g clip-path="url(#clip11_2196)">
		<path id="Vector" d="M5 1.03015L27.0001 1.03015L27.0001 22.4302L5 22.4302L5 1.03015Z" fill="#001D26" fill-opacity="1.000000" fill-rule="nonzero"/>
		<path id="Vector" d="M5 1.03003L27.0001 1.03003L27.0001 22.4301L5 22.4301L5 1.03003ZM4 23.4301L28.0001 23.4301L28.0001 0.0300293L4 0.0300293L4 23.4301ZM20.1801 9.63C19.39 9.63 19.1201 10.03 19.1201 10.36C19.1201 10.72 19.3 10.97 20.36 11.52C21.9301 12.28 22.42 13.01 22.42 14.0801C22.42 15.6801 21.2001 16.54 19.55 16.54C18.6801 16.54 17.93 16.36 17.5 16.1101C17.4301 16.0801 17.42 16.03 17.42 15.9501L17.42 14.48C17.42 14.38 17.47 14.35 17.54 14.4C18.17 14.8101 18.89 14.99 19.55 14.99C20.34 14.99 20.67 14.66 20.67 14.2101C20.67 13.8501 20.4401 13.53 19.43 13.01C18.01 12.3301 17.42 11.64 17.42 10.49C17.42 9.20007 18.4301 8.13 20.1801 8.13C21.04 8.13 21.64 8.26001 21.97 8.41003C22.05 8.46008 22.07 8.54004 22.07 8.60999L22.07 9.97998C22.07 10.0599 22.02 10.11 21.92 10.08C21.48 9.80005 20.83 9.63 20.1801 9.63ZM11.58 10.8201C11.81 10.8401 11.9901 10.8401 12.39 10.8401C13.5601 10.8401 14.66 10.4301 14.66 8.84009C14.66 7.57007 13.87 6.93005 12.54 6.93005C12.1401 6.93005 11.76 6.95007 11.58 6.96008L11.58 10.8201ZM9.80005 5.51001C9.80005 5.44006 9.94006 5.39001 10.02 5.39001C10.66 5.35999 11.61 5.33997 12.6 5.33997C15.37 5.33997 16.45 6.85999 16.45 8.80005C16.45 11.34 14.61 12.4301 12.35 12.4301C11.97 12.4301 11.84 12.41 11.57 12.41L11.57 16.25C11.57 16.3301 11.54 16.37 11.45 16.37L9.92004 16.37C9.84003 16.37 9.79999 16.3401 9.79999 16.25L9.79999 5.51001L9.80005 5.51001Z" fill="#31C5F0" fill-opacity="1.000000" fill-rule="nonzero"/>
	</g>
</svg>
