<svg width="32.655762" height="24.000000" viewBox="0 0 32.6558 24" fill="none" xmlns="http://www.w3.org/2000/svg" xmlns:xlink="http://www.w3.org/1999/xlink">
	<desc>
			Created with Pixso.
	</desc>
	<defs>
		<clipPath id="clip11_3152">
			<rect id="figma " width="16.090914" height="24.000000" transform="translate(8.125000 0.000000)" fill="white" fill-opacity="0"/>
		</clipPath>
		<clipPath id="clip11_3161">
			<rect id="sketch" width="26.400005" height="24.000000" transform="translate(2.875000 0.000000)" fill="white" fill-opacity="0"/>
		</clipPath>
		<clipPath id="clip11_3163">
			<rect id="logo 1" width="17.907690" height="24.000000" transform="translate(7.000000 0.000000)" fill="white" fill-opacity="0"/>
		</clipPath>
		<clipPath id="clip11_3165">
			<rect id="avacode" width="17.907690" height="24.000000" transform="translate(7.000000 0.000000)" fill="white" fill-opacity="0"/>
		</clipPath>
		<clipPath id="clip11_3168">
			<rect id="photoshop " width="24.000000" height="24.000000" transform="translate(4.000000 0.000000)" fill="white" fill-opacity="0"/>
		</clipPath>
		<clipPath id="clip11_3178">
			<rect id="zeplin " width="30.144009" height="24.000000" transform="translate(1.000000 0.000000)" fill="white" fill-opacity="0"/>
		</clipPath>
		<clipPath id="clip11_3182">
			<rect id="invision " width="24.000000" height="24.000000" transform="translate(4.000000 0.000000)" fill="white" fill-opacity="0"/>
		</clipPath>
		<clipPath id="clip11_3196">
			<rect id="html " width="16.956522" height="24.000000" transform="translate(7.875000 0.000000)" fill="white" fill-opacity="0"/>
		</clipPath>
		<clipPath id="clip11_3202">
			<rect id="css-3 " width="17.174314" height="24.000000" transform="translate(7.875000 0.000000)" fill="white" fill-opacity="0"/>
		</clipPath>
		<clipPath id="clip11_3205">
			<rect id="javascript " width="24.000000" height="24.000000" transform="translate(4.500000 0.000000)" fill="white" fill-opacity="0"/>
		</clipPath>
		<clipPath id="clip11_3207">
			<rect id="sass " width="32.655739" height="24.000000" fill="white" fill-opacity="0"/>
		</clipPath>
		<clipPath id="clip11_3210">
			<rect id="git-icon " width="24.000000" height="24.000000" transform="translate(4.500000 0.000000)" fill="white" fill-opacity="0"/>
		</clipPath>
		<clipPath id="clip11_3217">
			<rect id="gulp " width="10.871794" height="24.000000" transform="translate(10.875000 0.000000)" fill="white" fill-opacity="0"/>
		</clipPath>
		<clipPath id="clip11_3219">
			<rect id="wordpress logo" width="24.000000" height="24.000000" transform="translate(4.500000 0.000000)" fill="white" fill-opacity="0"/>
		</clipPath>
		<clipPath id="clip11_3222">
			<rect id="bitrix-1 logo" width="23.887417" height="24.000000" transform="translate(4.488037 0.000000)" fill="white" fill-opacity="0"/>
		</clipPath>
		<clipPath id="clip11_3224">
			<rect id="codeigniter-plain logo" width="24.000000" height="24.000000" transform="translate(4.500000 0.000000)" fill="white" fill-opacity="0"/>
		</clipPath>
	</defs>
	<rect id="sass " width="32.655739" height="24.000000" fill="#FFFFFF" fill-opacity="0"/>
	<g clip-path="url(#clip11_3207)">
		<path id="Vector" d="M27.2479 13.8143C26.1462 13.8202 25.1887 14.0883 24.387 14.4846C24.0928 13.896 23.7986 13.3713 23.7467 12.9867C23.6891 12.5378 23.6199 12.2639 23.6891 11.7277C23.7583 11.1914 24.0697 10.4279 24.064 10.3695C24.0582 10.3113 23.9948 10.0374 23.3602 10.0315C22.7258 10.0256 22.1779 10.1538 22.1144 10.3229C22.0509 10.4919 21.9298 10.8766 21.8491 11.2729C21.7395 11.8558 20.5801 13.9368 19.9167 15.0267C19.7034 14.6012 19.5188 14.2281 19.4784 13.9309C19.4208 13.4821 19.3516 13.2081 19.4208 12.6719C19.49 12.1356 19.8014 11.3721 19.7957 11.3138C19.7899 11.2555 19.7264 10.9816 19.0919 10.9757C18.4575 10.9698 17.9095 11.0981 17.8461 11.2672C17.7826 11.4362 17.7134 11.8325 17.5808 12.2173C17.4481 12.6019 15.9081 16.0759 15.5043 16.9735C15.2966 17.434 15.1178 17.8013 14.991 18.0519C14.991 18.0519 14.9852 18.0693 14.9679 18.0985C14.8583 18.3142 14.7948 18.4308 14.7948 18.4308C14.7948 18.4308 14.7948 18.4308 14.7948 18.4365C14.7084 18.594 14.6161 18.7396 14.5699 18.7396C14.5353 18.7396 14.4718 18.3199 14.5814 17.7488C14.8121 16.5422 15.3601 14.6654 15.3544 14.6012C15.3544 14.5663 15.4581 14.2399 14.9967 14.0708C14.5469 13.9017 14.3853 14.1815 14.345 14.1815C14.3046 14.1815 14.2758 14.2806 14.2758 14.2806C14.2758 14.2806 14.7776 12.1707 13.3182 12.1707C12.4069 12.1707 11.1495 13.179 10.5265 14.0883C10.1343 14.304 9.29797 14.7644 8.40393 15.2599C8.0636 15.4523 7.71179 15.6445 7.38293 15.8253C7.35986 15.802 7.33679 15.7728 7.31372 15.7495C5.54883 13.8435 2.28406 12.4971 2.42249 9.93823C2.47449 9.00562 2.79163 6.5575 8.69226 3.58484C13.549 1.16589 17.4135 1.83618 18.0825 3.32251C19.04 5.44421 16.0118 9.38452 10.9938 9.95569C9.07874 10.1714 8.0752 9.42529 7.82141 9.14551C7.55603 8.854 7.51562 8.83655 7.4176 8.8949C7.2561 8.9823 7.35986 9.24463 7.4176 9.39612C7.56763 9.79248 8.18469 10.4919 9.22876 10.8358C10.1516 11.1389 12.3954 11.308 15.1121 10.2471C18.1519 9.05811 20.5282 5.75317 19.8303 2.9845C19.1323 0.175049 14.5179 -0.751831 10.1516 0.816162C7.55603 1.74878 4.74121 3.21765 2.71667 5.12952C0.311401 7.40271 -0.0692139 9.37866 0.0865479 10.2063C0.645996 13.144 4.65479 15.0559 6.25818 16.4723C6.17749 16.5189 6.10254 16.5597 6.03906 16.5947C5.2373 16.9968 2.1803 18.6115 1.41895 20.3192C0.553711 22.2544 1.55737 23.6417 2.2207 23.8281C4.27979 24.4053 6.39673 23.3677 7.53296 21.6541C8.66919 19.9404 8.53076 17.7137 8.00598 16.6937C8.00012 16.6821 7.99438 16.6704 7.98291 16.6588C8.19055 16.5364 8.40393 16.4082 8.61157 16.2858C9.02112 16.0409 9.4248 15.8136 9.77087 15.6271C9.57483 16.1692 9.43066 16.8162 9.36145 17.7488C9.2749 18.8446 9.71899 20.2668 10.3016 20.8264C10.5612 21.0712 10.8668 21.077 11.063 21.077C11.7435 21.077 12.0493 20.5057 12.3896 19.8296C12.8049 19.002 13.1798 18.0402 13.1798 18.0402C13.1798 18.0402 12.7126 20.6399 13.9816 20.6399C14.443 20.6399 14.9102 20.0337 15.1178 19.7247L15.1178 19.7306C15.1178 19.7306 15.1294 19.713 15.1525 19.6722C15.1986 19.5964 15.2274 19.5498 15.2274 19.5498L15.2274 19.5382C15.412 19.2118 15.8273 18.4716 16.4445 17.2417C17.2405 15.6562 18.0076 13.6744 18.0076 13.6744C18.0076 13.6744 18.0768 14.1582 18.3134 14.9626C18.4518 15.4347 18.7401 15.9535 18.9708 16.4548C18.7863 16.717 18.6709 16.8628 18.6709 16.8628C18.6709 16.8628 18.6709 16.8628 18.6766 16.8687C18.5267 17.0668 18.3652 17.2825 18.1864 17.4923C17.5577 18.25 16.8079 19.1185 16.704 19.3691C16.5829 19.6664 16.6117 19.8821 16.8425 20.057C17.0098 20.1852 17.3097 20.2026 17.6154 20.1852C18.1807 20.1444 18.5786 20.0045 18.7748 19.9171C19.0804 19.8063 19.4381 19.6373 19.7726 19.3866C20.3898 18.9261 20.7646 18.2676 20.7301 17.399C20.7128 16.9211 20.557 16.4431 20.3667 15.9943C20.4244 15.9127 20.4763 15.8311 20.5339 15.7495C21.5088 14.3098 22.2644 12.7302 22.2644 12.7302C22.2644 12.7302 22.3336 13.214 22.5701 14.0183C22.6854 14.4264 22.9219 14.8694 23.1295 15.3007C22.2124 16.0526 21.6472 16.9269 21.4453 17.4982C21.0819 18.559 21.3645 19.037 21.901 19.1477C22.1432 19.2002 22.4893 19.0836 22.7432 18.9728C23.0662 18.8679 23.4468 18.6873 23.8102 18.4191C24.4274 17.9586 25.0215 17.3174 24.9868 16.449C24.9695 16.0526 24.8657 15.6621 24.7216 15.2832C25.5002 14.9568 26.5038 14.7761 27.7843 14.9276C30.5299 15.254 31.072 16.9852 30.9683 17.7137C30.8644 18.4424 30.2876 18.8387 30.0973 18.9612C29.907 19.0836 29.8435 19.1244 29.8608 19.2118C29.8839 19.3401 29.9762 19.3342 30.1377 19.3109C30.3625 19.27 31.5796 18.7222 31.6316 17.3816C31.718 15.6678 30.103 13.7969 27.2479 13.8143ZM6.06787 21.0304C5.15649 22.033 3.88757 22.4117 3.3396 22.0912C2.75134 21.7473 2.98206 20.2668 4.10107 19.2059C4.78162 18.559 5.65833 17.9586 6.24097 17.5914C6.37354 17.5098 6.5697 17.3932 6.80615 17.2474C6.84656 17.2241 6.86963 17.2125 6.86963 17.2125C6.91577 17.1833 6.96191 17.1542 7.00806 17.1251C7.4176 18.6406 7.02539 19.9753 6.06787 21.0304ZM12.701 16.4723C12.3838 17.2533 11.7205 19.2526 11.3168 19.1418C10.9707 19.0486 10.7572 17.5331 11.2476 16.0352C11.4956 15.2832 12.0204 14.3856 12.3262 14.0359C12.8221 13.4763 13.3701 13.2898 13.5028 13.5171C13.67 13.8143 12.8972 15.9827 12.701 16.4723ZM18.1749 19.1185C18.0422 19.1885 17.9153 19.2351 17.8577 19.2002C17.8173 19.1769 17.9153 19.0836 17.9153 19.0836C17.9153 19.0836 18.6017 18.3375 18.8728 17.9994C19.0286 17.8013 19.2131 17.5681 19.4092 17.3058L19.4092 17.3816C19.4092 18.2733 18.5555 18.8738 18.1749 19.1185ZM22.397 18.1451C22.299 18.0752 22.3163 17.842 22.645 17.1134C22.772 16.8279 23.0719 16.3499 23.5852 15.8894C23.6429 16.0759 23.6832 16.2566 23.6775 16.4257C23.6718 17.5505 22.8757 17.9702 22.397 18.1451Z" fill="#CD6799" fill-opacity="1.000000" fill-rule="nonzero"/>
	</g>
</svg>
