<svg width="24.000000" height="24.000000" viewBox="0 0 24 24" fill="none" xmlns="http://www.w3.org/2000/svg" xmlns:xlink="http://www.w3.org/1999/xlink">
	<desc>
			Created with Pixso.
	</desc>
	<defs/>
	<rect id="sun 1" width="24.000000" height="24.000000" fill="#FFFFFF" fill-opacity="0"/>
	<path id="Vector" d="M18.2126 12C18.2126 15.431 15.4312 18.2124 12 18.2124C8.56909 18.2124 5.7876 15.431 5.7876 12C5.7876 8.56885 8.56909 5.78748 12 5.78748C15.4312 5.78748 18.2126 8.56885 18.2126 12Z" fill="#FFE07D" fill-opacity="1.000000" fill-rule="evenodd"/>
	<path id="Vector" d="M18.2126 12C18.2126 15.431 15.4312 18.2124 12 18.2124C8.56909 18.2124 5.7876 15.431 5.7876 12C5.7876 8.56885 8.56909 5.78748 12 5.78748C15.4312 5.78748 18.2126 8.56885 18.2126 12Z" fill="#FFE07D" fill-opacity="1.000000" fill-rule="evenodd"/>
	<path id="Vector" d="M12 5.78748C11.8184 5.78748 11.6387 5.79578 11.4609 5.81104C14.6396 6.08423 17.1343 8.75061 17.1343 12C17.1343 15.2494 14.6396 17.9156 11.4609 18.189C11.6387 18.2042 11.8184 18.2124 12 18.2124C15.4312 18.2124 18.2124 15.431 18.2124 12C18.2124 8.56885 15.4312 5.78748 12 5.78748Z" fill="#FFD064" fill-opacity="1.000000" fill-rule="nonzero"/>
	<path id="Vector" d="M12 4.58594C11.8059 4.58594 11.6484 4.42859 11.6484 4.23438L11.6484 0.351562C11.6484 0.157349 11.8059 0 12 0C12.1941 0 12.3516 0.157349 12.3516 0.351562L12.3516 4.23438C12.3516 4.42859 12.1941 4.58594 12 4.58594Z" fill="#FFE07D" fill-opacity="1.000000" fill-rule="nonzero"/>
	<path id="Vector" d="M6.50879 6.86047C6.4187 6.86047 6.32886 6.82605 6.26025 6.75745L3.51465 4.01184C3.3772 3.87463 3.3772 3.65198 3.51465 3.51477C3.65186 3.37744 3.87451 3.37744 4.01172 3.51477L6.75732 6.26025C6.89453 6.39758 6.89453 6.62024 6.75732 6.75745C6.68872 6.82605 6.59863 6.86047 6.50879 6.86047Z" fill="#FFE07D" fill-opacity="1.000000" fill-rule="nonzero"/>
	<path id="Vector" d="M4.23438 12.3516L0.351562 12.3516C0.157471 12.3516 0 12.1942 0 12C0 11.8058 0.157471 11.6484 0.351562 11.6484L4.23438 11.6484C4.42847 11.6484 4.58594 11.8058 4.58594 12C4.58594 12.1942 4.42847 12.3516 4.23438 12.3516Z" fill="#FFE07D" fill-opacity="1.000000" fill-rule="nonzero"/>
	<path id="Vector" d="M3.76318 20.5883C3.6731 20.5883 3.58325 20.5538 3.51465 20.4852C3.3772 20.3479 3.3772 20.1254 3.51465 19.988L6.26025 17.2426C6.39746 17.1052 6.62012 17.1052 6.75732 17.2426C6.89453 17.3798 6.89453 17.6024 6.75732 17.7397L4.01172 20.4852C3.94312 20.5538 3.85327 20.5883 3.76318 20.5883Z" fill="#FFE07D" fill-opacity="1.000000" fill-rule="nonzero"/>
	<path id="Vector" d="M12 24C11.8059 24 11.6484 23.8425 11.6484 23.6484L11.6484 19.7656C11.6484 19.5714 11.8059 19.4141 12 19.4141C12.1941 19.4141 12.3516 19.5714 12.3516 19.7656L12.3516 23.6484C12.3516 23.8425 12.1941 24 12 24Z" fill="#FFE07D" fill-opacity="1.000000" fill-rule="nonzero"/>
	<path id="Vector" d="M20.2368 20.5883C20.1467 20.5883 20.0569 20.554 19.9883 20.4852L17.2427 17.7397C17.1052 17.6024 17.1052 17.3798 17.2427 17.2426C17.3799 17.1052 17.6025 17.1052 17.7397 17.2426L20.4854 19.988C20.6226 20.1254 20.6226 20.348 20.4854 20.4852C20.4167 20.5538 20.3267 20.5883 20.2368 20.5883Z" fill="#FFE07D" fill-opacity="1.000000" fill-rule="nonzero"/>
	<path id="Vector" d="M23.6484 12.3516L19.7656 12.3516C19.5715 12.3516 19.4141 12.1942 19.4141 12C19.4141 11.8058 19.5715 11.6484 19.7656 11.6484L23.6484 11.6484C23.8425 11.6484 24 11.8058 24 12C24 12.1942 23.8425 12.3516 23.6484 12.3516Z" fill="#FFE07D" fill-opacity="1.000000" fill-rule="nonzero"/>
	<path id="Vector" d="M17.4912 6.86047C17.4014 6.86047 17.3113 6.82605 17.2427 6.75745C17.1052 6.62012 17.1052 6.39758 17.2427 6.26025L19.9883 3.51477C20.1255 3.37744 20.3481 3.37744 20.4854 3.51477C20.6226 3.65198 20.6226 3.87463 20.4854 4.01184L17.7397 6.75745C17.6711 6.82605 17.5813 6.86047 17.4912 6.86047Z" fill="#FFE07D" fill-opacity="1.000000" fill-rule="nonzero"/>
	<path id="Vector" d="M9.02832 5.17712C8.89038 5.17712 8.75952 5.09534 8.70337 4.95996L7.96045 3.16638C7.88623 2.98694 7.97144 2.78137 8.15063 2.70703C8.33008 2.63269 8.53564 2.7179 8.61011 2.89734L9.35303 4.69092C9.42725 4.87036 9.34204 5.07593 9.16284 5.15027C9.11865 5.16846 9.07324 5.17712 9.02832 5.17712Z" fill="#FFF0AF" fill-opacity="1.000000" fill-rule="nonzero"/>
	<path id="Vector" d="M4.8252 9.37988C4.78052 9.37988 4.73486 9.37122 4.69092 9.35303L2.89722 8.60999C2.71802 8.53577 2.63281 8.33008 2.70703 8.15063C2.78125 7.97131 2.98706 7.88623 3.16626 7.96045L4.95996 8.70337C5.1394 8.77771 5.22461 8.9834 5.15015 9.16272C5.09424 9.2981 4.96338 9.37988 4.8252 9.37988Z" fill="#FFF0AF" fill-opacity="1.000000" fill-rule="nonzero"/>
	<path id="Vector" d="M3.03198 16.0664C2.89404 16.0664 2.76318 15.9846 2.70703 15.8492C2.63281 15.6699 2.71802 15.4642 2.89722 15.3899L4.69092 14.647C4.87036 14.5726 5.07593 14.6578 5.15015 14.8373C5.22461 15.0166 5.1394 15.2223 4.95996 15.2965L3.16626 16.0396C3.12231 16.0577 3.0769 16.0664 3.03198 16.0664Z" fill="#FFF0AF" fill-opacity="1.000000" fill-rule="nonzero"/>
	<path id="Vector" d="M8.28516 21.3198C8.24023 21.3198 8.19458 21.3112 8.15063 21.293C7.97144 21.2186 7.88623 21.0129 7.96045 20.8336L8.70337 19.04C8.77783 18.8606 8.9834 18.7754 9.16284 18.8497C9.34204 18.9241 9.42725 19.1298 9.35303 19.3091L8.61011 21.1027C8.55396 21.238 8.4231 21.3198 8.28516 21.3198Z" fill="#FFF0AF" fill-opacity="1.000000" fill-rule="nonzero"/>
	<path id="Vector" d="M15.7148 21.3198C15.5769 21.3198 15.446 21.238 15.3899 21.1027L14.647 19.3091C14.5728 19.1296 14.658 18.9241 14.8372 18.8497C15.0166 18.7754 15.2222 18.8606 15.2966 19.04L16.0396 20.8336C16.1138 21.0131 16.0286 21.2186 15.8494 21.293C15.8052 21.3112 15.7598 21.3198 15.7148 21.3198Z" fill="#FFF0AF" fill-opacity="1.000000" fill-rule="nonzero"/>
	<path id="Vector" d="M20.9678 16.0664C20.9231 16.0664 20.8774 16.0577 20.8335 16.0396L19.0398 15.2966C18.8606 15.2223 18.7754 15.0166 18.8496 14.8373C18.9238 14.6578 19.1296 14.5726 19.3088 14.647L21.1025 15.39C21.282 15.4642 21.3672 15.6699 21.2927 15.8492C21.2368 15.9846 21.106 16.0664 20.9678 16.0664Z" fill="#FFF0AF" fill-opacity="1.000000" fill-rule="nonzero"/>
	<path id="Vector" d="M19.1746 9.38C19.0366 9.38 18.9058 9.29822 18.8496 9.16284C18.7754 8.9834 18.8606 8.77783 19.0398 8.70349L20.8335 7.96057C21.0129 7.88635 21.2185 7.97144 21.2927 8.15076C21.3672 8.3302 21.282 8.53577 21.1025 8.61011L19.3088 9.35315C19.2649 9.37134 19.2195 9.38 19.1746 9.38Z" fill="#FFF0AF" fill-opacity="1.000000" fill-rule="nonzero"/>
	<path id="Vector" d="M14.9717 5.17712C14.9268 5.17712 14.8811 5.16846 14.8372 5.15027C14.658 5.07593 14.5728 4.87024 14.647 4.69092L15.3899 2.89734C15.4644 2.7179 15.6699 2.63269 15.8494 2.70703C16.0286 2.78137 16.1138 2.98706 16.0396 3.16638L15.2966 4.95996C15.2405 5.09534 15.1096 5.17712 14.9717 5.17712Z" fill="#FFF0AF" fill-opacity="1.000000" fill-rule="nonzero"/>
</svg>
