<svg width="24.000000" height="24.000000" viewBox="0 0 24 24" fill="none" xmlns="http://www.w3.org/2000/svg" xmlns:xlink="http://www.w3.org/1999/xlink">
	<desc>
			Created with Pixso.
	</desc>
	<defs>
		<clipPath id="clip375_8128">
			<rect id="flags / united-states-of-america" width="24.000000" height="24.000000" transform=" rotate(-0.000000)" fill="white" fill-opacity="0"/>
		</clipPath>
	</defs>
	<rect id="flags / united-states-of-america" width="24.000000" height="24.000000" transform=" rotate(-0.000000)" fill="#FFFFFF" fill-opacity="0"/>
	<g clip-path="url(#clip375_8128)">
		<path id="Vector" d="M24 12C24 18.6274 18.6274 24 12 24C5.37256 24 0 18.6274 0 12C0 5.37256 5.37256 0 12 0C18.6274 0 24 5.37256 24 12Z" fill="#F0F0F0" fill-opacity="1.000000" fill-rule="evenodd"/>
		<path id="Vector" d="M11.4781 11.9995L23.9999 11.9995C23.9999 10.916 23.8555 9.86719 23.5864 8.8689L11.4781 8.8689L11.4781 11.9995Z" fill="#D80027" fill-opacity="1.000000" fill-rule="nonzero"/>
		<path id="Vector" d="M11.4781 5.73877L22.2385 5.73877C21.504 4.54028 20.5648 3.48071 19.4697 2.6084L11.4781 2.6084L11.4781 5.73877Z" fill="#D80027" fill-opacity="1.000000" fill-rule="nonzero"/>
		<path id="Vector" d="M11.9996 23.9995C14.8237 23.9995 17.4196 23.0234 19.4694 21.3906L4.52979 21.3906C6.57959 23.0234 9.17542 23.9995 11.9996 23.9995Z" fill="#D80027" fill-opacity="1.000000" fill-rule="nonzero"/>
		<path id="Vector" d="M1.76111 18.2607L22.2385 18.2607C22.8282 17.2983 23.2856 16.2466 23.5864 15.1304L0.413208 15.1304C0.713989 16.2466 1.17139 17.2983 1.76111 18.2607Z" fill="#D80027" fill-opacity="1.000000" fill-rule="nonzero"/>
		<path id="Vector" d="M5.55859 1.87402L6.65222 1.87402L5.63501 2.61304L6.02356 3.80859L5.00635 3.06982L3.98926 3.80859L4.32483 2.77563C3.42932 3.52173 2.64429 4.39575 1.99744 5.36963L2.34778 5.36963L1.70032 5.84009C1.59949 6.0083 1.50269 6.1792 1.41003 6.35278L1.71924 7.30444L1.14233 6.88525C0.998901 7.18896 0.867798 7.49976 0.749878 7.81689L1.09058 8.86523L2.34778 8.86523L1.33069 9.60449L1.71924 10.7998L0.702026 10.061L0.0927734 10.5039C0.0317383 10.9941 0 11.4932 0 12L12 12C12 5.37256 12 4.59131 12 0C9.62939 0 7.41956 0.687744 5.55859 1.87402ZM6.02356 10.7998L5.00635 10.061L3.98926 10.7998L4.37781 9.60449L3.3606 8.86523L4.61792 8.86523L5.00635 7.66943L5.3949 8.86523L6.65222 8.86523L5.63501 9.60449L6.02356 10.7998ZM5.63501 6.10864L6.02356 7.30444L5.00635 6.56543L3.98926 7.30444L4.37781 6.10864L3.3606 5.36963L4.61792 5.36963L5.00635 4.17383L5.3949 5.36963L6.65222 5.36963L5.63501 6.10864ZM10.3279 10.7998L9.31079 10.061L8.29358 10.7998L8.68213 9.60449L7.66492 8.86523L8.92224 8.86523L9.31079 7.66943L9.69922 8.86523L10.9565 8.86523L9.93933 9.60449L10.3279 10.7998ZM9.93933 6.10864L10.3279 7.30444L9.31079 6.56543L8.29358 7.30444L8.68213 6.10864L7.66492 5.36963L8.92224 5.36963L9.31079 4.17383L9.69922 5.36963L10.9565 5.36963L9.93933 6.10864ZM9.93933 2.61304L10.3279 3.80859L9.31079 3.06982L8.29358 3.80859L8.68213 2.61304L7.66492 1.87402L8.92224 1.87402L9.31079 0.678223L9.69922 1.87402L10.9565 1.87402L9.93933 2.61304Z" fill="#0052B4" fill-opacity="1.000000" fill-rule="nonzero"/>
	</g>
</svg>
