<svg width="24.000000" height="13.691650" viewBox="0 0 24 13.6917" fill="none" xmlns="http://www.w3.org/2000/svg" xmlns:xlink="http://www.w3.org/1999/xlink">
	<desc>
			Created with Pixso.
	</desc>
	<defs/>
	<path id="Vector" d="M11.7423 13.6345L13.1769 13.6345C13.1769 13.6345 13.6101 13.5867 13.8314 13.3484C14.035 13.1292 14.0286 12.718 14.0286 12.718C14.0286 12.718 14.0005 10.7932 14.8939 10.5095C15.7745 10.2307 16.9055 12.3704 18.1041 13.1926C19.0106 13.8157 19.6993 13.679 19.6993 13.679L22.9044 13.6345C22.9044 13.6345 24.5811 13.531 23.786 12.2126C23.7209 12.1047 23.3231 11.2375 21.4031 9.45532C19.3934 7.59009 19.6625 7.89185 22.0834 4.66528C23.5576 2.7002 24.1471 1.50049 23.963 0.986816C23.7874 0.497314 22.703 0.626709 22.703 0.626709L19.0944 0.64917C19.0944 0.64917 18.8268 0.612793 18.6284 0.731201C18.4346 0.847656 18.3097 1.11865 18.3097 1.11865C18.3097 1.11865 17.7385 2.6394 16.9768 3.93237C15.3699 6.66138 14.7274 6.80542 14.4647 6.63599C13.8539 6.24097 14.0063 5.04956 14.0063 4.20288C14.0063 1.55859 14.4075 0.456055 13.2253 0.170654C12.8331 0.0756836 12.5444 0.0131836 11.5413 0.00317383C10.2535 -0.0102539 9.1637 0.00708008 8.54663 0.309326C8.13611 0.510498 7.81946 0.958496 8.01233 0.984131C8.25085 1.01611 8.79102 1.12988 9.07739 1.51978C9.44714 2.02295 9.4342 3.15283 9.4342 3.15283C9.4342 3.15283 9.64661 6.26587 8.93799 6.65259C8.45154 6.91772 7.78418 6.37622 6.35156 3.90063C5.61755 2.63257 5.06335 1.23071 5.06335 1.23071C5.06335 1.23071 4.95642 0.96875 4.76587 0.828613C4.53455 0.658936 4.2113 0.60498 4.2113 0.60498L0.782104 0.627441C0.782104 0.627441 0.267334 0.641602 0.0783691 0.865479C-0.0897217 1.0647 0.0649414 1.47656 0.0649414 1.47656C0.0649414 1.47656 2.74976 7.75757 5.78955 10.9231C8.5769 13.825 11.7423 13.6345 11.7423 13.6345Z" fill="#3A4459" fill-opacity="1.000000" fill-rule="evenodd"/>
</svg>
