<svg width="24.000000" height="24.000000" viewBox="0 0 24 24" fill="none" xmlns="http://www.w3.org/2000/svg" xmlns:xlink="http://www.w3.org/1999/xlink">
	<desc>
			Created with Pixso.
	</desc>
	<defs>
		<clipPath id="clip21_4844">
			<rect id="wordpress logo" width="24.000000" height="24.000000" fill="white" fill-opacity="0"/>
		</clipPath>
	</defs>
	<rect id="wordpress logo" width="24.000000" height="24.000000" fill="#FFFFFF" fill-opacity="0"/>
	<g clip-path="url(#clip21_4844)">
		<path id="Vector" d="M1.70575 11.9995C1.70575 16.0745 4.07373 19.5957 7.50751 21.2646L2.59698 7.81006C2.0083 9.12842 1.70459 10.5559 1.70575 11.9995ZM18.9494 11.4802C18.9494 12.3613 18.6108 13.384 18.1655 14.8079L17.1389 18.2393L13.4188 7.1731C14.0381 7.14062 14.597 7.07495 14.597 7.07495C15.1515 7.00928 15.0863 6.19434 14.5309 6.22705C14.5309 6.22705 12.864 6.35767 11.7875 6.35767C10.7759 6.35767 9.07593 6.22705 9.07593 6.22705C8.52118 6.19434 8.45612 7.04248 9.01086 7.07495C9.01086 7.07495 9.53601 7.14062 10.0904 7.1731L11.6945 11.5674L9.44141 18.3237L5.69269 7.17334C6.31323 7.14087 6.87109 7.0752 6.87109 7.0752C7.42523 7.00952 7.3598 6.19458 6.80487 6.22729C6.80487 6.22729 5.13812 6.35791 4.0614 6.35791C3.86823 6.35791 3.64044 6.35303 3.39893 6.3457C5.23962 3.55103 8.40363 1.70581 12 1.70581C14.6801 1.70581 17.1201 2.73022 18.9518 4.4082C18.9071 4.40552 18.8638 4.3999 18.8182 4.3999C17.8073 4.3999 17.0897 5.28076 17.0897 6.22705C17.0897 7.07495 17.5787 7.79297 18.1005 8.64111C18.4924 9.3269 18.9494 10.208 18.9494 11.4802ZM12.1806 12.9001L15.3452 21.5691C15.3653 21.6187 15.3898 21.666 15.4185 21.7109C14.3484 22.0869 13.1988 22.2944 12 22.2944C11.0156 22.2944 10.0363 22.1531 9.09198 21.875L12.1806 12.9001ZM21.0328 7.06079C21.8629 8.57446 22.2966 10.2732 22.2939 11.9995C22.2939 15.7976 20.2354 19.1133 17.1749 20.8979L20.3194 11.8064C20.907 10.3381 21.1022 9.16382 21.1022 8.11914C21.1022 7.74072 21.0771 7.38867 21.0328 7.06079ZM12 0C18.6165 0 24.0004 5.38306 24.0006 11.9995C24.0006 18.6172 18.6165 24 12 24C5.38318 24 0 18.6169 0 11.9995C0 5.38306 5.38336 0 12 0ZM12 23.4497C18.3128 23.4497 23.4492 18.3132 23.4492 11.9995C23.4492 5.68652 18.313 0.550537 12 0.550537C5.68658 0.550537 0.550232 5.68652 0.550232 11.9995C0.550232 18.3132 5.68677 23.4497 12 23.4497Z" fill="#00749A" fill-opacity="1.000000" fill-rule="nonzero"/>
	</g>
</svg>
